<?xml version="1.0" encoding="utf-8"?>
<!-- Generator: Adobe Illustrator 27.1.1, SVG Export Plug-In . SVG Version: 6.00 Build 0)  -->
<svg version="1.1" id="Layer_1" xmlns="http://www.w3.org/2000/svg" xmlns:xlink="http://www.w3.org/1999/xlink" x="0px" y="0px"
	 viewBox="0 0 1500 1497.9" style="enable-background:new 0 0 1500 1497.9;" xml:space="preserve">
<style type="text/css">
	.st0{fill:#017AA0;}
	.st1{fill:#1DA7E0;}
	.st2{fill:#FFD208;}
	.st3{fill:#EA5297;}
	.st4{fill:#007AA2;}
	.st5{fill:#94C242;}
</style>
<g>
	<path class="st1" d="M1157.8,724.9c36.3-16.9,62.3-13.6,84.5-1.2c-13.8-110.4-60.6-149.1-74.8-158.5c-36,22.8-64.8,55.8-82.4,95
		c-27.9,35.9-187.2,47.3-325.4,50.2c-4.1,0.1-8.4,0.2-12.8,0.2c-46.7,0.8-90.3,0.7-124.8,0.4c-21.3-0.6-42.8-1.6-63.4-3.4
		c33.7,12.4,89.9,38.8,102.3,80.4c26.2-0.1,55.4,0.1,85.9,0.6c4.4,0.1,8.7,0.2,12.8,0.2c138.5,2.9,298.3,14.3,325.6,50.4
		C1081.1,804.7,1090.1,756.5,1157.8,724.9z"/>
	<path class="st2" d="M691.2,1162c94.4,110.7,202.4,110.4,275.6,98.2c0-0.1,0-0.1,0-0.2c-0.6-6.6-1.6-13.1-2.8-19.5
		c-0.1-0.4-0.1-0.8-0.2-1.2c-1.3-6.4-2.8-12.7-4.6-18.9c-0.2-0.5-0.3-1-0.4-1.6c-1.8-6.1-3.9-12.1-6.3-18c-0.3-0.7-0.5-1.4-0.8-2.1
		c-2.4-5.8-5-11.4-7.9-16.9c-0.4-0.8-0.8-1.6-1.2-2.4c-2.9-5.5-6.1-10.8-9.5-16.1c-0.5-0.8-1-1.5-1.5-2.3
		c-3.6-5.4-7.5-10.7-11.6-15.8c-0.4-0.5-0.7-0.9-1.1-1.4c-7.2-8.8-15.1-17-23.6-24.6c-2.3-2-4.6-4-7-6c-0.5-0.4-0.9-0.7-1.4-1.1
		c-5.1-4.1-10.4-8-15.8-11.6c-0.7-0.5-1.5-0.9-2.2-1.4c-5.2-3.4-10.6-6.6-16.1-9.5c-0.8-0.4-1.6-0.8-2.4-1.2
		c-5.5-2.9-11.2-5.5-17-7.9c-0.7-0.3-1.3-0.5-2-0.8c-5.9-2.4-12-4.5-18.1-6.3c-0.5-0.1-0.9-0.3-1.4-0.4c-6.2-1.8-12.6-3.4-19.1-4.7
		c-0.4-0.1-0.7-0.1-1.1-0.2c-6.5-1.2-13-2.2-19.7-2.8c-0.3,0-0.6,0-0.9-0.1c-6.6-0.6-13.4-1-20.2-1c-6.8,0-13.5,0.4-20.2,1
		c-0.3,0-0.6,0-0.9,0.1c-6.7,0.6-13.2,1.6-19.7,2.8c-0.2,0-0.4,0-0.6,0.1l0,0l0,0c-0.1,0-0.3,0.1-0.4,0.1c-1.1,0.2-2.2,0.4-3.4,0.7
		c-6.9,1.2-23.1,3-46.1-0.9c2,2.4,4,5,6.1,7.6C683.1,1097.8,685.7,1119.7,691.2,1162z"/>
	<path class="st3" d="M691.2,1162c1.9,14.5,4.2,31.4,7.5,51.5c28.1,168.4,144.7,212.7,202,224.3c1.2-1.1,2.4-2.2,3.6-3.4
		c4.4-4.4,8.6-9.1,12.6-13.8c0.4-0.5,0.9-1,1.3-1.6c0.2-0.2,0.3-0.4,0.5-0.7c0.4-0.5,0.7-0.9,1.1-1.4c4.1-5.1,8-10.3,11.6-15.8
		c0.5-0.8,1-1.5,1.5-2.3c3.4-5.2,6.6-10.6,9.5-16.1c0.4-0.8,0.8-1.6,1.2-2.4c2.8-5.5,5.5-11.1,7.9-16.9c0.3-0.7,0.5-1.4,0.8-2.1
		c2.3-5.9,4.5-11.9,6.3-18c0.2-0.5,0.3-1,0.4-1.6c1.8-6.2,3.4-12.5,4.6-18.9c0.1-0.4,0.1-0.8,0.2-1.2c1.2-6.4,2.2-12.9,2.8-19.5
		c0-0.4,0.1-0.7,0.1-1.1c0.6-6.6,1-13.2,1-20c0,0,0,0,0-0.1c0-6.7-0.4-13.4-1-20c0-0.3,0-0.6-0.1-0.9
		C893.7,1272.4,785.6,1272.6,691.2,1162z"/>
	<path class="st4" d="M478.3,1071.1c6.9,7.7,10.9,12.4,10.9,12.4c57.2,76.4,52.5,135.8,49.8,151.8c-0.3,1.3-0.6,2.7-0.8,4
		c-0.1,0.3-0.1,0.7-0.2,1c-1.2,6.5-2.2,13-2.8,19.7c0,0.3,0,0.6-0.1,0.9c-0.6,6.6-1,13.4-1,20.2c0,6.8,0.4,13.5,1,20.2
		c0,0.3,0,0.6,0.1,0.9c0.6,6.7,1.6,13.2,2.8,19.7c0.1,0.3,0.1,0.7,0.2,1c1.3,6.5,2.8,12.9,4.7,19.1c0.1,0.4,0.2,0.9,0.4,1.3
		c1.9,6.2,4,12.3,6.4,18.2c0.2,0.6,0.5,1.3,0.7,1.9c2.4,5.8,5.1,11.5,7.9,17.1c0.4,0.7,0.8,1.5,1.1,2.2c3,5.6,6.2,11,9.6,16.3
		c0.5,0.7,0.9,1.4,1.3,2.1c3.7,5.5,7.6,10.8,11.7,16c0.3,0.4,0.6,0.8,1,1.2c9.2,11.2,19.4,21.5,30.7,30.7c0.4,0.3,0.8,0.6,1.2,1
		c5.1,4.1,10.5,8.1,16,11.7c0.7,0.5,1.4,0.9,2.1,1.3c5.3,3.4,10.7,6.6,16.3,9.6c0.7,0.4,1.5,0.8,2.2,1.1c5.6,2.9,11.3,5.5,17.1,7.9
		c0.6,0.3,1.3,0.5,1.9,0.7c5.9,2.4,12,4.5,18.2,6.4c0.4,0.1,0.9,0.2,1.3,0.4c6.3,1.8,12.7,3.4,19.1,4.7c0.3,0.1,0.7,0.1,1,0.2
		c6.5,1.2,13,2.2,19.7,2.8c0.3,0,0.6,0,0.9,0.1c6.6,0.6,13.4,1,20.2,1c6.8,0,13.5-0.4,20.2-1c0.3,0,0.6,0,0.9-0.1
		c6.7-0.6,13.2-1.6,19.7-2.8c0.4-0.1,0.7-0.1,1.1-0.2c6.5-1.3,12.8-2.8,19.1-4.7c0.5-0.1,0.9-0.3,1.4-0.4c6.2-1.8,12.2-4,18.1-6.3
		c0.7-0.3,1.3-0.5,2-0.8c5.8-2.4,11.5-5,17-7.9c0.8-0.4,1.6-0.8,2.3-1.2c5.5-2.9,10.9-6.1,16.1-9.5c0.7-0.5,1.5-0.9,2.2-1.4
		c5.5-3.6,10.7-7.5,15.8-11.6c0.4-0.4,0.9-0.7,1.4-1.1c4.3-3.5,8.4-7.3,12.5-11.1c-57.3-11.6-174-55.9-202-224.3
		c-3.4-20.1-5.6-37-7.5-51.5c-5.6-42.2-8.1-64.2-25.4-86.2c-2.1-2.7-4.1-5.2-6.1-7.6c-27.4-4.6-64.2-17.3-106.3-48.8
		c0,0-75.5-64.3-114.4-121.1C401.3,935.7,505.5,1003.8,478.3,1071.1z"/>
	<path class="st3" d="M269.4,874C137.9,870.6,45.7,795.5,0.7,731.7c-4.7,61,16.2,123.6,62.8,170.2c28.4,28.4,62.6,47,98.8,56.3
		c3.2,0.9,6.4,1.6,9.7,2.4c1.6,0.3,3.3,0.7,4.9,1c13.6,2.7,27.6,4.1,42,4.1c31,0,60.4-6.5,87.1-18.3l0,0
		c44.6-13,140.1,87.7,172.3,123.6c27.2-67.3-77.1-135.4-39.2-173c-12.8-18.7-21.6-36.7-22.5-51.2l-0.8,0.9
		C415.9,847.8,367.3,876.5,269.4,874z"/>
	<path class="st2" d="M558.8,707.6c-71.1-6.1-132-20.7-142.3-53.8c0-0.4,0.1-0.9,0.1-1.3c-14.8,11.5-91.4,65.8-233.1,74.9
		c0,0-106.9,10.1-173.9-42.6c-4.7,15.3-7.6,31-8.9,46.9c45,63.8,137.3,138.9,268.8,142.3c97.8,2.5,146.4-26.1,146.4-26.1l0.8-0.9
		c0-0.5-0.1-1-0.1-1.5c13.4-42.7,110.6-54.6,205.6-57.1c11.9-0.1,25-0.2,38.9-0.3C648.7,746.4,592.4,719.9,558.8,707.6z"/>
	<path class="st5" d="M183.4,727.4c141.7-9.1,218.3-63.4,233.1-74.9c1.2-58.3,136.9-173.8,136.9-173.8
		c76.4-57.2,135.8-52.5,151.8-49.8c1.4,0.3,2.8,0.6,4.2,0.9c0.2,0,0.5,0.1,0.7,0.1c6.6,1.3,13.2,2.2,20,2.9c0.2,0,0.3,0,0.5,0
		c6.7,0.6,13.5,1,20.4,1c6.9,0,13.7-0.4,20.4-1c0.2,0,0.3,0,0.5,0c6.8-0.6,13.4-1.6,20-2.9c0.2,0,0.5-0.1,0.7-0.1
		c6.6-1.3,13.1-2.9,19.4-4.7c0.3-0.1,0.7-0.2,1-0.3c6.3-1.9,12.4-4,18.5-6.5c0.5-0.2,1.1-0.4,1.6-0.6c5.9-2.4,11.7-5.1,17.4-8.1
		c0.7-0.3,1.3-0.7,2-1c5.7-3,11.1-6.3,16.5-9.7c0.6-0.4,1.3-0.8,1.9-1.2c5.6-3.7,11-7.7,16.2-11.9c0.3-0.3,0.7-0.5,1-0.8
		c11.3-9.2,21.6-19.5,30.8-30.8c0.3-0.3,0.5-0.7,0.8-1c4.2-5.2,8.2-10.6,11.9-16.1c0.4-0.6,0.8-1.3,1.3-2c3.5-5.3,6.7-10.8,9.7-16.4
		c0.4-0.7,0.7-1.4,1.1-2.1c2.9-5.6,5.6-11.4,8-17.2c0.2-0.6,0.5-1.2,0.7-1.8c2.4-6,4.5-12.1,6.4-18.3c0.1-0.4,0.2-0.8,0.4-1.2
		c1.8-6.3,3.4-12.7,4.7-19.2c0.1-0.3,0.1-0.6,0.2-1c1.2-6.5,2.2-13.1,2.9-19.8c0-0.3,0-0.6,0.1-0.8c0.6-6.7,1-13.4,1-20.2
		c0-6.8-0.4-13.5-1-20.2c0-0.3,0-0.6-0.1-0.9c-0.6-6.7-1.6-13.2-2.8-19.7c-0.1-0.4-0.1-0.7-0.2-1.1c0-0.1,0-0.1,0-0.2
		c-8.4-13.2-32.8-26.7-103-4c-87.5,28.3-110.1,160.8-329.1,163.3c-7.3,23.1-20.1,50.3-42.5,80.2c0,0-129.1,151.7-183.2,136l0,0
		c-15.1-6.6-31.1-11.6-47.7-14.6c0,0-0.1,0-0.1,0c-5.7-1-11.5-1.9-17.4-2.5c-63.2-7-128.8,13.6-177.3,62.1
		c-25.9,25.9-43.9,56.8-53.9,89.6C76.6,737.5,183.4,727.4,183.4,727.4z"/>
	<path class="st4" d="M963.8,174.9c-1.3-6.4-2.8-12.7-4.6-18.9c-0.1-0.5-0.3-0.9-0.4-1.4c-1.8-6.2-4-12.2-6.3-18.1
		c-0.3-0.7-0.5-1.3-0.8-2c-2.4-5.8-5-11.5-7.9-17c-0.4-0.8-0.8-1.6-1.2-2.3c-2.9-5.5-6.1-10.9-9.5-16.1c-0.5-0.7-0.9-1.5-1.4-2.2
		c-3.6-5.5-7.5-10.7-11.6-15.8c-0.4-0.4-0.7-0.9-1.1-1.4c-4.6-5.6-9.4-11-14.5-16.1c-4.4-4.4-9.1-8.6-13.8-12.6
		c-0.5-0.4-1-0.9-1.6-1.3c-0.2-0.2-0.4-0.3-0.7-0.5c-0.5-0.4-0.9-0.7-1.4-1.1c-5.1-4.1-10.3-8-15.8-11.6c-0.8-0.5-1.5-1-2.3-1.5
		c-3-1.9-6-3.8-9.1-5.6C718.3,50.4,700.6,168.1,700.6,168.1C664.8,280.1,572,289.2,540.2,288.9c-0.6,12.1-2.9,27.5-8.5,45.3
		c219-2.5,241.6-135,329.1-163.3C931,148.1,955.3,161.7,963.8,174.9z"/>
	<path class="st3" d="M700.6,168.1c0,0,17.7-117.7,159.1-138.8c-2.3-1.3-4.6-2.7-7-3.9c-0.8-0.4-1.6-0.8-2.4-1.2
		c-5.5-2.8-11.1-5.5-16.9-7.9c-0.7-0.3-1.4-0.5-2.1-0.8c-5.9-2.3-11.9-4.5-18-6.3c-0.5-0.2-1-0.3-1.6-0.4
		c-6.2-1.8-12.5-3.4-18.9-4.6c-0.4-0.1-0.8-0.1-1.2-0.2c-6.4-1.2-12.9-2.2-19.5-2.8C771.8,1,771.4,1,771,1c-6.6-0.6-13.2-1-20-1
		c0,0,0,0-0.1,0c-6.7,0-13.4,0.4-20,1c-0.4,0-0.7,0-1.1,0.1c-6.6,0.6-13.1,1.6-19.5,2.8c-0.4,0.1-0.8,0.1-1.2,0.2
		c-6.4,1.3-12.7,2.8-18.9,4.6c-0.5,0.2-1,0.3-1.6,0.4c-6.1,1.8-12.1,3.9-18,6.3c-0.7,0.3-1.4,0.5-2.1,0.8c-5.8,2.4-11.4,5-16.9,7.9
		c-0.8,0.4-1.6,0.8-2.4,1.2c-5.5,2.9-10.8,6.1-16.1,9.5c-0.8,0.5-1.5,1-2.3,1.5c-5.4,3.6-10.7,7.5-15.8,11.6
		c-0.5,0.4-0.9,0.7-1.4,1.1c-8.8,7.2-17,15.1-24.6,23.6c-2,2.3-4,4.6-6,7c-0.4,0.5-0.7,0.9-1.1,1.4c-4.1,5.1-8,10.4-11.6,15.8
		c-0.5,0.7-0.9,1.5-1.4,2.2c-3.4,5.2-6.6,10.6-9.5,16.1c-0.4,0.8-0.8,1.6-1.2,2.4c-2.9,5.5-5.5,11.2-7.9,17c-0.3,0.7-0.5,1.3-0.8,2
		c-2.4,5.9-4.5,12-6.3,18.1c-0.1,0.5-0.3,0.9-0.4,1.4c-1.8,6.2-3.4,12.6-4.7,19.1c-0.1,0.4-0.1,0.7-0.2,1.1
		c-1.2,6.5-2.2,13-2.8,19.7c0,0.3,0,0.6-0.1,0.9c-0.6,6.6-1,13.4-1,20.2c0,6.8,0.4,13.5,1,20.2c0,0.3,0,0.6,0.1,0.8
		c0.6,6.7,1.6,13.3,2.8,19.7c0,0.2,0,0.4,0.1,0.6l0,0c0,0,0,0,0,0c0,0.1,0.1,0.2,0.1,0.4c0.2,1.1,0.4,2.3,0.7,3.4
		c0.8,4.8,2,14.1,1.3,26.9C572,289.2,664.8,280.1,700.6,168.1z"/>
	<path class="st2" d="M1242.3,723.7c48.7,27.2,78.5,98,155.7,94.6c76.7-3.4,96.8-49.6,101.8-78.6c-4.6-115.7-99.8-208-216.6-208
		c-42.5,0-82.2,12.3-115.6,33.4C1181.7,574.6,1228.5,613.3,1242.3,723.7z"/>
	<path class="st5" d="M1485.6,826.3c1.7-4.4,3.3-8.9,4.7-13.5c0.6-1.8,1-3.6,1.5-5.4c1.4-5.1,2.8-10.4,3.8-15.6
		c0.3-1.3,0.4-2.5,0.7-3.8c1.1-5.8,1.9-11.6,2.5-17.5c0.1-0.7,0.1-1.4,0.2-2.1c0.6-6.3,0.9-12.7,0.9-19.2c0,0,0-0.1,0-0.1
		c0-0.1,0-0.2,0-0.3c0-3-0.1-5.9-0.2-8.8c-5,29-25.1,75.2-101.8,78.6c-77.2,3.4-107-67.5-155.7-94.6c-22.2-12.4-48.3-15.7-84.5,1.2
		c-67.7,31.6-76.7,79.8-72.4,114.3c0.9,1.2,1.6,2.4,2.2,3.6l0.1-0.1c0.3,0.5,0.5,1.1,0.8,1.6c2.3,4.6,4.7,9.1,7.3,13.6
		c0.8,1.4,1.6,2.8,2.5,4.2c3.1,5,6.4,9.9,9.9,14.7c0.6,0.8,1.2,1.6,1.8,2.4c3.7,4.9,7.6,9.6,11.7,14.2c0.6,0.6,1.1,1.3,1.7,1.9
		c2.2,2.3,4.1,4.8,6.4,7.1c2.4,2.4,4.9,4.4,7.4,6.7c0.1,0.1,0.2,0.2,0.3,0.3c82.4,75,208.4,75.1,290.9,0.3c0.3-0.3,0.6-0.5,0.8-0.8
		c2.4-2.2,4.9-4.2,7.2-6.5c2.2-2.2,4.1-4.6,6.2-6.8c0.8-0.8,1.5-1.7,2.3-2.5c3.9-4.4,7.7-8.9,11.2-13.6c0.8-1.1,1.6-2.2,2.4-3.2
		c3.3-4.5,6.4-9.1,9.3-13.8c1.1-1.7,2.1-3.5,3.1-5.3c2.4-4.1,4.6-8.2,6.7-12.5c1.6-3.2,3.1-6.5,4.6-9.9
		C1483.4,831.9,1484.5,829.1,1485.6,826.3z"/>
</g>
</svg>
