<svg width="15" height="16" viewBox="0 0 15 16" fill="none" xmlns="http://www.w3.org/2000/svg">
<path d="M1.07143 14.96H5.02714V9.68008C5.02714 9.44227 5.11036 9.24294 5.27679 9.08209C5.4425 8.92055 5.64786 8.83978 5.89286 8.83978H9.10714C9.35214 8.83978 9.55786 8.92055 9.72429 9.08209C9.89 9.24294 9.97286 9.44227 9.97286 9.68008V14.96H13.9286V5.92057C13.9286 5.8138 13.9046 5.71674 13.8568 5.62938C13.8089 5.54202 13.7436 5.46576 13.6607 5.40058L7.89214 1.18037C7.78214 1.08747 7.65143 1.04101 7.5 1.04101C7.34857 1.04101 7.21821 1.08747 7.10893 1.18037L1.33929 5.40058C1.25714 5.46714 1.19179 5.54341 1.14321 5.62938C1.09464 5.71535 1.07071 5.81241 1.07143 5.92057V14.96ZM0 14.96V5.92057C0 5.65434 0.0614285 5.40232 0.184286 5.16451C0.307143 4.9267 0.476428 4.73084 0.692143 4.57693L6.46179 0.335912C6.76393 0.111971 7.10893 0 7.49679 0C7.88464 0 8.23178 0.111971 8.53821 0.335912L14.3079 4.57589C14.5243 4.7298 14.6936 4.92601 14.8157 5.16451C14.9386 5.40232 15 5.65434 15 5.92057V14.96C15 15.2387 14.8932 15.4817 14.6796 15.689C14.4661 15.8963 14.2157 16 13.9286 16H9.76714C9.52143 16 9.31571 15.9196 9.15 15.7587C8.98429 15.5972 8.90143 15.3975 8.90143 15.1597V9.88079H6.09857V15.1597C6.09857 15.3982 6.01571 15.5979 5.85 15.7587C5.68429 15.9196 5.47893 16 5.23393 16H1.07143C0.784286 16 0.533928 15.8963 0.320357 15.689C0.106785 15.4817 0 15.2387 0 14.96Z" fill="currentColor"/>
</svg>
