<svg width="15" height="16" viewBox="0 0 15 16" fill="none" xmlns="http://www.w3.org/2000/svg">
    <path d="M1.42578 15H13.87M2.72153 8.92334C2.38991 9.2557 2.20363 9.70602 2.20354 10.1755V12.6667H4.71028C5.18004 12.6667 5.63037 12.48 5.96247 12.1472L13.3512 4.75452C13.6827 4.42211 13.8689 3.9718 13.8689 3.50233C13.8689 3.03286 13.6827 2.58254 13.3512 2.25013L12.6217 1.51903C12.4572 1.35442 12.2618 1.22385 12.0468 1.13479C11.8318 1.04573 11.6013 0.999928 11.3685 1C11.1358 1.00007 10.9054 1.04602 10.6904 1.13521C10.4754 1.2244 10.2802 1.35509 10.1157 1.51981L2.72153 8.92334Z" stroke="currentColor" stroke-linecap="round" stroke-linejoin="round"/>
</svg>
