<svg xmlns="http://www.w3.org/2000/svg" width="19" height="17" fill="none"><path fill="currentColor" d="M2.857 13.518V8.277L.808 10.326 0 9.518l3.429-3.429 3.428 3.429-.808.808L4 8.276v5.242h6.857v1.143H4a1.143 1.143 0 0 1-1.143-1.143Zm10.857-1.714H16a1.143 1.143 0 0 1 1.143 1.142v2.286A1.143 1.143 0 0 1 16 16.375h-2.286a1.143 1.143 0 0 1-1.143-1.143v-2.286a1.143 1.143 0 0 1 1.143-1.142ZM16 15.232v-2.286h-2.286v2.286H16Zm-.571-12.571V7.9l2.049-2.048.808.808-3.429 3.428-3.428-3.428.808-.808 2.049 2.049V2.66H7.429V1.518h6.857a1.143 1.143 0 0 1 1.143 1.143Zm-14.286 0H4.57v1.143H1.143V2.66Zm0-2.286h4.571v1.143H1.143V.375Z"/></svg>