<svg width="14" height="14" viewBox="0 0 14 14" fill="none" xmlns="http://www.w3.org/2000/svg">
    <path d="M3.10852 14C2.7108 14 2.37227 13.8603 2.09292 13.581C1.81357 13.3016 1.67389 12.9634 1.67389 12.5663V1.57134H0.786133V0.683576H4.33718V0H9.66375V0.683576H13.2148V1.57134H12.327V12.5663C12.327 12.9746 12.1903 13.3158 11.9169 13.5899C11.6435 13.8639 11.302 14.0006 10.8924 14H3.10852ZM11.4393 1.57134H2.56166V12.5663C2.56166 12.7255 2.61285 12.8563 2.71524 12.9587C2.81763 13.061 2.94872 13.1122 3.10852 13.1122H10.8933C11.0294 13.1122 11.1546 13.0554 11.2688 12.9418C11.383 12.8282 11.4399 12.7027 11.4393 12.5654V1.57134ZM5.05449 11.3367H5.94225V3.34686H5.05449V11.3367ZM8.05868 11.3367H8.94644V3.34686H8.05868V11.3367Z" fill="currentColor"/>
</svg>
